<?xml version="1.0" encoding="UTF-8"?>
<svg width="597px" height="530px" viewBox="0 0 697 630" version="1.1" xmlns="http://www.w3.org/2000/svg" xmlns:xlink="http://www.w3.org/1999/xlink">
    <!-- Generator: sketchtool 55.2 (78181) - https://sketchapp.com -->
    <title>DDF3508F-D32D-44A7-86B5-CE99C02477E2</title>
    <desc>Created with sketchtool.</desc>
    <g id="Landing-page" stroke="none" stroke-width="1" fill="none" fill-rule="evenodd">
        <g id="Home-Dashboard" transform="translate(-536.000000, -137.000000)">
            <g id="Illustration" transform="translate(517.000000, 137.000000)">
                <g id="Image" transform="translate(182.000000, 0.000000)">
                    <g id="Web">
                        <rect id="Container" fill="#F2F2F2" x="0" y="0" width="396" height="346" rx="8"></rect>
                        <path d="M8,0 L388,0 C392.418278,-8.11624501e-16 396,3.581722 396,8 L396,27 L0,27 L0,8 C-5.41083001e-16,3.581722 3.581722,8.11624501e-16 8,0 Z" id="Header" fill="#C5CFD6"></path>
                        <g id="Buttons" transform="translate(9.000000, 10.000000)" fill="#F2F2F2">
                            <circle id="buttons" cx="4" cy="4" r="4"></circle>
                            <circle id="buttons" cx="16" cy="4" r="4"></circle>
                            <circle id="buttons" cx="28" cy="4" r="4"></circle>
                        </g>
                        <g id="Content" transform="translate(16.000000, 43.000000)">
                            <g id="Components" transform="translate(294.000000, 89.000000)">
                                <rect id="Background" fill="#FFFFFF" x="0" y="0" width="70" height="194" rx="8"></rect>
                                <g id="Rows" transform="translate(18.000000, 18.000000)">
                                    <rect id="Data" fill="#DDE3E9" x="0" y="0" width="34" height="26" rx="4"></rect>
                                    <rect id="Data" fill="#AFB9C5" x="0" y="34" width="34" height="25" rx="4"></rect>
                                    <rect id="Data" fill="#DDE3E9" x="0" y="67" width="34" height="25" rx="4"></rect>
                                    <rect id="Data" fill="#DDE3E9" x="0" y="133" width="34" height="25" rx="4"></rect>
                                    <rect id="Data" fill="#C5CFD6" x="0" y="100" width="34" height="25" rx="4"></rect>
                                </g>
                            </g>
                            <g id="Profile" transform="translate(294.000000, 0.000000)">
                                <rect id="Background" fill="#FFFFFF" x="0" y="0" width="70" height="81" rx="8"></rect>
                                <g id="Profile-Info" transform="translate(10.000000, 15.000000)" fill="#DDE3E9">
                                    <circle id="Avatar" cx="25" cy="16" r="16"></circle>
                                    <rect id="Name" x="0" y="36" width="50" height="6" rx="3"></rect>
                                    <rect id="Name" x="8" y="46" width="34" height="6" rx="3"></rect>
                                </g>
                            </g>
                            <g id="Rows">
                                <g id="Row">
                                    <rect id="Container" fill="#FFFFFF" x="0" y="0" width="286" height="47" rx="4"></rect>
                                    <g id="Text-Stuff" transform="translate(9.000000, 14.100000)" fill="#DDE3E9">
                                        <rect id="Label" x="0" y="0" width="228" height="7.05" rx="3"></rect>
                                        <rect id="Label" x="0" y="11.75" width="153.041096" height="7.05" rx="3"></rect>
                                    </g>
                                    <g id="Check" transform="translate(248.435115, 16.500000)">
                                        <circle id="Background" fill="#DDE3E9" cx="7" cy="7" r="7"></circle>
                                        <circle id="Indicator" fill="#F2F2F2" cx="7" cy="7" r="3"></circle>
                                    </g>
                                </g>
                                <g id="Row" transform="translate(0.000000, 55.000000)">
                                    <rect id="Container" fill="#FFFFFF" x="0" y="0" width="286" height="39" rx="4"></rect>
                                    <g id="Text-Stuff" transform="translate(9.000000, 11.700000)" fill="#DDE3E9">
                                        <rect id="Label" x="0" y="0" width="228" height="5.85" rx="2.925"></rect>
                                        <rect id="Label" x="0" y="9.75" width="153.041096" height="5.85" rx="2.925"></rect>
                                    </g>
                                    <g id="Check" transform="translate(248.435115, 12.500000)">
                                        <circle id="Background" fill="#DDE3E9" cx="7" cy="7" r="7"></circle>
                                        <circle id="Indicator" fill="#F2F2F2" cx="7" cy="7" r="3"></circle>
                                    </g>
                                </g>
                                <g id="Row" transform="translate(0.000000, 102.000000)">
                                    <rect id="Container" fill="#FFFFFF" x="0" y="0" width="286" height="39" rx="4"></rect>
                                    <g id="Text-Stuff" transform="translate(9.000000, 11.700000)" fill="#DDE3E9">
                                        <rect id="Label" x="0" y="0" width="228" height="5.85" rx="2.925"></rect>
                                        <rect id="Label" x="0" y="9.75" width="153.041096" height="5.85" rx="2.925"></rect>
                                    </g>
                                    <g id="Check" transform="translate(248.435115, 12.500000)">
                                        <circle id="Background" fill="#DDE3E9" cx="7" cy="7" r="7"></circle>
                                        <circle id="Indicator" fill="#AFB9C5" cx="7" cy="7" r="3"></circle>
                                    </g>
                                </g>
                                <g id="Row" transform="translate(0.000000, 243.000000)">
                                    <rect id="Container" fill="#FFFFFF" x="0" y="0" width="286" height="39" rx="4"></rect>
                                    <g id="Text-Stuff" transform="translate(9.000000, 11.700000)" fill="#DDE3E9">
                                        <rect id="Label" x="0" y="0" width="228" height="5.85" rx="2.925"></rect>
                                        <rect id="Label" x="0" y="9.75" width="153.041096" height="5.85" rx="2.925"></rect>
                                    </g>
                                    <g id="Check" transform="translate(248.435115, 12.500000)">
                                        <circle id="Background" fill="#DDE3E9" cx="7" cy="7" r="7"></circle>
                                        <circle id="Indicator" fill="#F2F2F2" cx="7" cy="7" r="3"></circle>
                                    </g>
                                </g>
                                <g id="Row" transform="translate(0.000000, 196.000000)">
                                    <rect id="Container" fill="#FFFFFF" x="0" y="0" width="286" height="39" rx="4"></rect>
                                    <g id="Text-Stuff" transform="translate(9.000000, 11.700000)" fill="#DDE3E9">
                                        <rect id="Label" x="0" y="0" width="228" height="5.85" rx="2.925"></rect>
                                        <rect id="Label" x="0" y="9.75" width="153.041096" height="5.85" rx="2.925"></rect>
                                    </g>
                                    <g id="Check" transform="translate(248.435115, 12.500000)">
                                        <circle id="Background" fill="#DDE3E9" cx="7" cy="7" r="7"></circle>
                                        <circle id="Indicator" fill="#F2F2F2" cx="7" cy="7" r="3"></circle>
                                    </g>
                                </g>
                                <g id="Row" transform="translate(0.000000, 149.000000)">
                                    <rect id="Container" fill="#FFFFFF" x="0" y="0" width="286" height="39" rx="4"></rect>
                                    <g id="Text-Stuff" transform="translate(9.000000, 11.700000)" fill="#DDE3E9">
                                        <rect id="Label" x="0" y="0" width="228" height="5.85" rx="2.925"></rect>
                                        <rect id="Label" x="0" y="9.75" width="153.041096" height="5.85" rx="2.925"></rect>
                                    </g>
                                    <g id="Check" transform="translate(248.435115, 12.500000)">
                                        <circle id="Background" fill="#DDE3E9" cx="7" cy="7" r="7"></circle>
                                        <circle id="Indicator" fill="#F2F2F2" cx="7" cy="7" r="3"></circle>
                                    </g>
                                </g>
                            </g>
                        </g>
                    </g>
                </g>
                <g id="A-Human/Standing" transform="translate(619.000000, 250.500000) scale(-1, 1) translate(-619.000000, -250.500000) translate(469.000000, 74.000000)">
                    <g id="Head/Front" transform="translate(82.000000, 0.000000)">
                        <g id="Head" transform="translate(54.000000, 31.000000)" fill="#915B3C">
                            <path d="M8.26227388,34.4901268 C3.65436435,29.0813759 0.535634794,22.4528771 1.05677633,15.0254539 C2.55833022,-6.37502057 32.3485306,-1.66718886 38.1433414,9.13393292 C43.9381521,19.9350547 43.249578,47.3329958 35.7603014,49.2634576 C32.7735882,50.033323 26.4110012,48.1474609 19.935372,44.244306 L24,73 L0,73 L8.26227388,34.4901268 Z"></path>
                        </g>
                        <path d="M60.4181384,70.3075201 C57.4059021,56.9064588 48.8245327,47.7714043 50.1351137,41.781703 C51.0088343,37.7885688 53.3375617,35.3053788 57.1212959,34.3321331 C59.0782074,26.4155009 65.3896485,23.0482486 76.0556193,24.2303763 C92.0545754,26.0035679 101.819448,32.6477587 97.6024819,47.2678779 C93.7260987,47.2678779 89.0464758,45.8659867 82.57553,48.2678779 C80.5223249,49.0299883 79.0538125,51.3933595 78.1699927,55.3579915 L75.2457978,55.3579915 C72.4077436,50.6530572 69.6094038,48.9241222 66.8507787,50.1711866 C64.0921535,51.418251 63.4650732,54.4473753 64.9695377,59.2585597 L63.529076,70.3075201 L60.4181384,70.3075201 Z" id="Hair" fill="#191847"></path>
                    </g>
                    <g id="Bottom/Skinny-Jeans-1" transform="translate(0.000000, 187.000000)">
                        <g id="Seat" transform="translate(10.000000, 42.000000)" fill="#C5CFD6">
                            <path d="M59,0 L174,0 C182.836556,-1.623249e-15 190,7.163444 190,16 L190,108 C190,116.836556 182.836556,124 174,124 L59,124 C50.163444,124 43,116.836556 43,108 L43,16 C43,7.163444 50.163444,1.623249e-15 59,0 Z M75,28 C72.790861,28 71,29.790861 71,32 L71,92 C71,94.209139 72.790861,96 75,96 L158,96 C160.209139,96 162,94.209139 162,92 L162,32 C162,29.790861 160.209139,28 158,28 L75,28 Z"></path>
                        </g>
                        <path d="M299.158964,161 C279.443095,136.924175 266.102867,119.075435 259.13828,107.453779 C247.213216,87.5546842 237.453121,69.8481647 234.373078,63.0843539 C227.028322,46.9551796 251.281896,39.4026181 256.77103,46.9258 C265.079054,58.3124345 282.822044,94.1429674 310,154.417399 L299.158964,161 Z" id="LegLower" fill="#B28B67"></path>
                        <path d="M258.757567,154 L222.065197,61.6367769 C214.217429,44.7995771 252.115758,33.7320765 257.883274,41.5677718 C270.977322,59.3572261 302.098846,129.534043 306,134.834115 L258.757567,154 Z" id="LegLower" fill="#2F3676"></path>
                        <g id="Lower-Leg" transform="translate(220.172961, 98.499284) rotate(39.000000) translate(-220.172961, -98.499284) translate(192.672961, 26.499284)" fill="#915B3C">
                            <path d="M4.8104618,137.955033 C3.80382537,125.354418 1.93361965,81.7337126 3.80483649,61.543304 C4.34254917,55.7413902 4.90906557,50.1318704 5.47997786,44.8696433 C7.17693121,29.2284421 36.1790278,29.7228704 33.8758977,44.5827954 C28.1401936,81.5898816 18.0447004,133.45317 17.3211185,137.93445 C16.3069876,144.215156 5.44310141,145.874127 4.8104618,137.955033 Z" id="LegLower"></path>
                        </g>
                        <g id="Right-Shoe" transform="translate(189.500000, 140.000000) rotate(30.000000) translate(-189.500000, -140.000000) translate(159.000000, 120.000000)" fill="#E4E4E4">
                            <path d="M2.67813181,25.4019242 C1.55937727,28.3884109 1,30.6229931 1,32.1056708 C1,33.908957 1.3004142,36.5404001 1.90124261,40 C3.99318117,40 22.7937852,40 58.3030548,40 C59.768738,35.1545073 58.9226607,32.5385816 55.7648228,32.1522232 C52.606985,31.7658647 49.9837155,31.4170139 47.8950143,31.1056708 L21.6799926,19.4188835 C21.1755635,19.1940064 20.584344,19.4206282 20.359467,19.9250573 C20.35562,19.9336867 20.3518954,19.9423702 20.3482945,19.9511052 L18.6632131,24.038695 C15.7398812,25.4026522 13.3643706,26.0846307 11.5366811,26.0846307 C10.0517269,26.0846307 8.00099246,25.4849054 5.38447792,24.2854549 L5.38448339,24.285443 C4.38038273,23.8251478 3.19325534,24.2659892 2.73296014,25.2700899 C2.71312074,25.3133681 2.69483298,25.3573409 2.67813181,25.4019242 Z" id="shoe"></path>
                        </g>
                        <g id="Right-Shoe" transform="translate(288.000000, 132.000000)" fill="#E4E4E4">
                            <path d="M2.67813181,25.4019242 C1.55937727,28.3884109 1,30.6229931 1,32.1056708 C1,33.908957 1.3004142,36.5404001 1.90124261,40 C3.99318117,40 22.7937852,40 58.3030548,40 C59.768738,35.1545073 58.9226607,32.5385816 55.7648228,32.1522232 C52.606985,31.7658647 49.9837155,31.4170139 47.8950143,31.1056708 L21.6799926,19.4188835 C21.1755635,19.1940064 20.584344,19.4206282 20.359467,19.9250573 C20.35562,19.9336867 20.3518954,19.9423702 20.3482945,19.9511052 L18.6632131,24.038695 C15.7398812,25.4026522 13.3643706,26.0846307 11.5366811,26.0846307 C10.0517269,26.0846307 8.00099246,25.4849054 5.38447792,24.2854549 L5.38448339,24.285443 C4.38038273,23.8251478 3.19325534,24.2659892 2.73296014,25.2700899 C2.71312074,25.3133681 2.69483298,25.3573409 2.67813181,25.4019242 Z" id="shoe"></path>
                        </g>
                        <path d="M208.862091,66.2500522 C178.365272,61.2817352 157.938089,57.8844191 147.580542,56.0581041 C118.057451,50.8523866 109.448266,34.9653306 114.538476,0.302228659 L168.93427,0.302228659 C176.132679,2.38099361 206.210425,15.2374805 259.167508,38.8716893 C268.695532,43.6015333 266.921101,57.5474982 265.179547,62.1420768 C265.10852,62.3294612 249.046098,89.8530148 216.99228,144.712738 L172.494227,116.36549 L208.945659,69.5903876 C209.908306,67.6514874 209.88045,66.5380423 208.862091,66.2500522 Z" id="Leg-and-Butt" fill="#5C63AB"></path>
                    </g>
                    <g id="Body/Long-Sleeve-1" transform="translate(22.000000, 82.000000)">
                        <path d="M190.781205,92.2114854 L222.679476,115.635084 C231.330944,117.969562 238.558965,120.874047 244.363541,124.34854 C245.734683,125.597945 247.391836,128.128197 241.70538,127.690906 C236.018925,127.253615 230.01796,127.049392 229.233339,128.988954 C228.448719,130.928516 231.889854,133.24802 230.303794,135.864997 C229.246421,137.609648 224.250967,133.234999 215.31743,122.74105 L183.729774,109.642447 L190.781205,92.2114854 Z M68.3079281,93.0198914 L89.2053198,93.1020711 C76.3021447,134.755739 69.3363474,156.856914 68.3079281,159.405597 C65.9939846,165.140133 70.8906002,173.873732 72.9845874,178.567103 C66.1645409,181.61887 66.8912241,170.316929 58.2879189,174.319492 C50.4352209,177.972846 44.4616931,184.59248 35.3890352,178.994371 C34.2736052,178.306117 33.0512757,175.714714 36.0045784,173.68967 C43.3623323,168.644547 53.9653015,159.814672 55.3979297,156.908251 C57.3515741,152.944826 61.6549068,131.648706 68.3079281,93.0198914 Z" id="Skin" fill="#915B3C"></path>
                        <path d="M122.731734,9.58031077 L131.216685,7.34914009 C165.5935,32.1628362 183.361709,84.0563407 224.996623,108.72736 L216.58973,121.240539 C147.889238,118.771641 125.383314,55.5469019 122.731734,9.58031077 Z" id="Coat-Back" fill="#E87613" transform="translate(173.864178, 64.294840) rotate(5.000000) translate(-173.864178, -64.294840) "></path>
                        <path d="M90,114 C124.671756,114 150.175573,114 166.511451,114 C170.007634,114 169.348845,108.951637 168.84345,106.404206 C163.010588,77.0037663 140.241304,45.3115155 140.241304,3.4607303 L118.1718,0 C99.917485,29.3584068 93.6048263,65.5045499 90,114 Z" id="Shirt" fill="#DDE3E9"></path>
                        <path d="M90.6148413,28.8579585 C87.4095228,27.9365884 84.8712423,25.7876656 83,22.4111902 C74.933557,7.85607578 77.8467271,-0.157592785 86.4671964,-2.7917309 C95.0876658,-5.42586901 102.775319,-2.04281037e-14 116.510031,-7.10542736e-15 C117.257085,-6.21724894e-15 117.941303,0.0468325343 118.562683,0.140497603 L125.471587,0.534739944 C145.293986,67.7151944 150.760885,112.536948 141.872285,135 L81.6518141,135 C78.0838152,143.319871 74.6695413,150.319871 71.4089926,156 L55,156 C53.4556832,106.067091 65.327297,63.6864104 90.6148413,28.8579585 Z" id="Coat-Front" fill="#FF9B21"></path>
                        <path d="M94.7652287,100.497634 C96.6591508,116.344024 99.7374079,127.844812 104,135 L81.6518141,135 C85.813785,125.295103 90.1849231,113.794314 94.7652283,100.497633 Z" id="Shade" fill-opacity="0.1" fill="#000000"></path>
                    </g>
                </g>
                <g id="humaaan-2" transform="translate(0.000000, 168.000000)">
                    <g id="Head/Front" transform="translate(88.812991, 0.000000)">
                        <path d="M103.962783,49.9843838 C107.658224,64.1555674 112.209488,93.862961 107.352449,98.6097579 L75.942978,98.6097579 C75.942233,98.5968099 75.9414913,98.5838695 75.940753,98.5709368 C64.4356802,98.1518862 55.2373466,88.6928463 55.2373466,77.0854206 L55.2373466,50.7506193 C55.2373466,38.8764972 64.8632245,29.2506193 76.7373466,29.2506193 L82.4761819,29.2506193 C94.0938185,29.2506193 103.559288,38.4651431 103.962783,49.9843838 Z" id="Hair-Back" fill="#191847"></path>
                        <g id="Head" transform="translate(58.486602, 33.584044)" fill="#B28B67">
                            <path d="M8.94874695,37.3650944 C3.95798812,31.5054903 0.580138127,24.3244647 1.14457884,16.2779193 C2.77088967,-6.90641835 35.0362157,-1.80615946 41.3124896,9.89530326 C47.5887635,21.596766 46.842979,51.2784966 38.7314542,53.3698744 C35.4965893,54.203913 28.6053651,52.1608524 21.5917067,47.9323451 L25.9940455,79.0850077 L0,79.0850077 L8.94874695,37.3650944 Z"></path>
                        </g>
                        <path d="M74.4620729,67.0324893 C75.6597243,79.9006018 75.1799094,94.595707 71.6106389,98.0839648 L40.2011655,98.0839648 C38.451123,67.6702083 55.3643595,79.4477762 55.3643595,50.8124347 C56.4188342,49.7818938 57.4152274,48.7618936 58.4011672,47.8822449 L58.3662476,47.0400877 C63.8051484,35.9026796 70.7053189,30.3339756 79.0667591,30.3339756 C91.6089195,30.3339756 95.5677437,36.1714481 98.9384085,41.1275467 C96.4178976,49.7782439 86.636454,51.0609497 77.9450308,56.4531664 C76.9205548,55.620599 75.6142039,55.1216145 74.1913381,55.1216145 C70.9013951,55.1216145 68.2343694,57.7893077 68.2343694,61.080074 C68.2343694,64.3708403 70.9013951,67.0385335 74.1913381,67.0385335 C74.2820712,67.0385335 74.3723304,67.0365045 74.4620729,67.0324893 Z" id="Hair-Front" fill="#191847"></path>
                    </g>
                    <g id="Bottom/Skinny-Jeans-1" transform="translate(0.000000, 202.587623)">
                        <polygon id="Leg" fill="#997659" points="145.13342 0 198.293019 134.582002 233.947382 248.35974 248.026517 248.35974 193.518831 5.51469404e-13"></polygon>
                        <path d="M134.428883,0 C133.862809,47.2930393 125.607376,110.96544 124.288436,113.913448 C123.409142,115.878786 93.0545185,140.871487 33.224564,188.89155 L42.9216605,199.271184 C113.515464,158.100004 150.445733,134.768804 153.712467,129.277584 C158.612568,121.040753 174.565608,45.2443564 187.37374,0 L134.428883,0 Z" id="Leg" fill="#B28B67"></path>
                        <g id="Left-Shoe" transform="translate(55.778889, 204.754336) rotate(50.000000) translate(-55.778889, -204.754336) translate(22.744790, 183.087210)" fill="#E4E4E4">
                            <path d="M2.96565851,27.3464962 C1.71060966,30.6686752 1.08308523,33.1471366 1.08308523,34.7818803 C1.08308523,36.7354817 1.40845942,39.5862721 2.0592078,43.3342514 C4.32495555,43.3342514 24.6876122,43.3342514 63.1471776,43.3342514 C64.7346374,38.0848564 63.8182636,35.2508769 60.3980561,34.832313 C56.9778486,34.4137491 54.1366241,34.0358195 51.8743827,33.698524 L23.4033434,21.0028163 C22.8989352,20.7778923 22.3076946,21.0044591 22.0827707,21.5088673 C22.0788982,21.5175515 22.0751499,21.5262905 22.0715267,21.5350816 L20.2138505,26.0424714 C17.0476329,27.5201229 14.4747524,28.2589486 12.495209,28.2589486 C10.8577414,28.2589486 8.58508298,27.5854796 5.67723356,26.2385416 L5.67724198,26.2385234 C4.67496518,25.7742611 3.48610038,26.2104081 3.02183812,27.2126849 C3.00149894,27.2565943 2.98276007,27.3012275 2.96565851,27.3464962 Z" id="shoe"></path>
                        </g>
                        <g id="Right-Shoe" transform="translate(225.281727, 215.587899)" fill="#E4E4E4">
                            <path d="M2.96565851,27.3464962 C1.71060966,30.6686752 1.08308523,33.1471366 1.08308523,34.7818803 C1.08308523,36.7354817 1.40845942,39.5862721 2.0592078,43.3342514 C4.32495555,43.3342514 24.6876122,43.3342514 63.1471776,43.3342514 C64.7346374,38.0848564 63.8182636,35.2508769 60.3980561,34.832313 C56.9778486,34.4137491 54.1366241,34.0358195 51.8743827,33.698524 L23.4033434,21.0028163 C22.8989352,20.7778923 22.3076946,21.0044591 22.0827707,21.5088673 C22.0788982,21.5175515 22.0751499,21.5262905 22.0715267,21.5350816 L20.2138505,26.0424714 C17.0476329,27.5201229 14.4747524,28.2589486 12.495209,28.2589486 C10.8577414,28.2589486 8.58508298,27.5854796 5.67723356,26.2385416 L5.67724198,26.2385234 C4.67496518,25.7742611 3.48610038,26.2104081 3.02183812,27.2126849 C3.00149894,27.2565943 2.98276007,27.3012275 2.96565851,27.3464962 Z" id="shoe"></path>
                        </g>
                        <polygon id="Pant" fill="#69A1AC" points="180.875234 236.640644 247.814737 229.373965 198.204597 3.07908372e-14 138.24941 3.07908372e-14"></polygon>
                        <path d="M47.0708375,172.145827 L90.9791602,224.131198 C137.226851,173.607797 164.189375,140.641268 171.866733,125.231613 C179.544091,109.821957 186.445645,68.0780861 192.571395,0 L125.072677,0 C121.726481,59.8921306 119.470912,91.2317329 118.30597,94.0188068 C117.141028,96.8058807 93.3959841,122.848221 47.0708375,172.145827 Z" id="Pant" fill="#89C5CC"></path>
                    </g>
                    <g id="Body/Long-Sleeve-1" transform="translate(23.827876, 88.835214)">
                        <path d="M207.360723,2.53096875 L248.416142,-9.78975892 C256.074619,-15.7515391 263.298474,-20.1103157 270.087706,-22.8660887 C272.062305,-23.2375474 275.331446,-23.0212771 271.24684,-18.3873574 C267.162235,-13.7534377 263.074279,-8.69548797 264.240899,-6.75211592 C265.407519,-4.80874387 269.657083,-6.2731122 270.887413,-3.19476835 C271.707632,-1.14253912 264.666992,0.326384346 249.765491,1.21200205 L217.845209,19.9961711 L207.360723,2.53096875 Z M203.736905,74.9358109 L238.284443,100.309327 C247.654719,102.83777 255.483218,105.98382 261.769938,109.747476 C263.254941,111.100911 265.049638,113.841918 258.890648,113.36857 C252.731658,112.895221 246.232007,112.674385 245.382051,114.775639 C244.532094,116.876894 248.259042,119.389468 246.540998,122.224646 C245.395636,124.114765 239.985338,119.37588 230.310105,108.00799 L196.098295,93.8199143 L203.736905,74.9358109 Z" id="Skin" fill="#B28B67"></path>
                        <path d="M137.535514,16.954442 C164.787955,45.9775881 198.026775,64.9164704 243.359265,81.715139 L233.292301,101.850246 C186.519593,97.4391453 161.514062,93.9161694 141.911106,64.8482572 C136.991162,57.5528006 128.19401,32.4505038 122.923868,19.4148429 L137.535514,16.954442 Z" id="Coat-Back" fill="#2026A2" transform="translate(183.141566, 59.402344) rotate(15.000000) translate(-183.141566, -59.402344) "></path>
                        <path d="M97.4776769,123.502611 L180.875245,123.502611 C161.984299,65.8738887 152.334087,26.3211164 151.924608,4.84429401 C151.903733,3.74938485 149.882086,1.82000026 148.987665,2.07267034 C142.446862,3.92041945 135.447687,3.22952934 127.990139,0 C108.219159,31.8056131 101.382011,70.9647626 97.4776769,123.502611 Z" id="Shirt" fill="#F2F2F2"></path>
                        <path d="M135.106771,0.0513460473 C159.012342,0.247146017 197.79737,4.61364235 242.527358,-9.75020612 L246.943448,12.3215308 C213.136944,34.0696352 178.905026,50.9167318 148.909337,48.5243424 C161.934731,104.410724 161.334201,150.159644 132.577735,150.159644 C118.845093,150.159644 104.022585,150.159644 88.1102115,150.159644 C81.0477423,102.684785 99.6092933,36.8596973 116.817201,3.65805463 C117.474319,2.39018391 118.873389,-5.32907052e-15 122.168774,-5.32907052e-15 C125.040097,-5.32907052e-15 129.34708,-5.32907052e-15 135.089725,-5.32907052e-15 C135.095408,0.0171153639 135.10109,0.0342307133 135.106771,0.0513460473 Z" id="Coat-Front" fill="#1F28CF"></path>
                    </g>
                </g>
                <g id="Image" transform="translate(320.000000, 143.000000)">
                    <rect id="Photo-Background" fill="#6369D1" fill-rule="nonzero" transform="translate(56.839606, 45.029637) rotate(14.000000) translate(-56.839606, -45.029637) " x="6.83960641" y="12.0296366" width="100" height="66" rx="4"></rect>
                    <path d="M9.95525994,55.4778066 L88.3497386,75.0237454 L9.95525994,55.4778066 Z M11.6487132,48.6857365 L90.0431919,68.2316753 L11.6487132,48.6857365 Z M13.3421665,41.8936664 L91.7366451,61.4396052 L13.3421665,41.8936664 Z M14.7936979,36.071892 L93.1881765,55.6178308 L14.7936979,36.071892 Z M16.2006441,29.0632988 L94.5951227,48.6092376 L16.2006441,29.0632988 Z M66.1340195,21.4161218 L99.3675234,29.4681841 L66.1340195,21.4161218 Z M21.6495731,10.0909228 L54.73392,18.3397769 L21.6495731,10.0909228 Z M19.0811971,19.9906719 L51.3715864,27.6917948 L19.0811971,19.9906719 Z" id="Combined-Shape" stroke="#FFFFFF" fill="#FFFFFF" stroke-linecap="square"></path>
                </g>
            </g>
        </g>
    </g>
</svg>