<?xml version="1.0" encoding="UTF-8"?>
<svg width="267px" height="65px" viewBox="0 0 267 65" version="1.1" xmlns="http://www.w3.org/2000/svg" xmlns:xlink="http://www.w3.org/1999/xlink">
    <!-- Generator: Sketch 55.2 (78181) - https://sketchapp.com -->
    <title>Combined Shape</title>
    <desc>Created with Sketch.</desc>
    <g id="Logo" stroke="none" stroke-width="1" fill="none" fill-rule="evenodd">
        <g id="Desktop" transform="translate(-267.000000, -293.000000)" fill="#FFFFFF" fill-rule="nonzero">
            <path d="M267,319.1 C267,315.739983 267.619994,312.610014 268.86,309.71 C270.100006,306.809985 271.819989,304.280011 274.02,302.12 C276.220011,299.959989 278.849985,298.270006 281.91,297.05 C284.970015,295.829994 288.339982,295.22 292.02,295.22 C295.660018,295.22 299.019985,295.829994 302.1,297.05 C305.180015,298.270006 307.829989,299.959989 310.05,302.12 C312.270011,304.280011 313.999994,306.809985 315.24,309.71 C316.480006,312.610014 317.1,315.739983 317.1,319.1 C317.1,322.220016 316.590005,325.119987 315.57,327.8 C314.549995,330.480013 313.08001,332.85999 311.16,334.94 L318.84,342.98 L308.04,344.66 L303.9,340.4 C302.139991,341.200004 300.27001,341.829998 298.29,342.29 C296.30999,342.750002 294.220011,342.98 292.02,342.98 C288.339982,342.98 284.970015,342.370006 281.91,341.15 C278.849985,339.929994 276.220011,338.240011 274.02,336.08 C271.819989,333.919989 270.100006,331.390014 268.86,328.49 C267.619994,325.589985 267,322.460017 267,319.1 Z M279.3,319.1 C279.3,320.900009 279.639997,322.559992 280.32,324.08 C281.000003,325.600008 281.919994,326.919994 283.08,328.04 C284.240006,329.160006 285.589992,330.029997 287.13,330.65 C288.670008,331.270003 290.299991,331.58 292.02,331.58 C293.060005,331.58 294.099995,331.460001 295.14,331.22 L288.42,324.14 L299.52,322.76 L302.64,326.06 C304.080007,324.05999 304.8,321.740013 304.8,319.1 C304.8,317.299991 304.460003,315.640008 303.78,314.12 C303.099997,312.599992 302.170006,311.280006 300.99,310.16 C299.809994,309.039994 298.450008,308.170003 296.91,307.55 C295.369992,306.929997 293.740009,306.62 292.02,306.62 C290.299991,306.62 288.670008,306.929997 287.13,307.55 C285.589992,308.170003 284.240006,309.039994 283.08,310.16 C281.919994,311.280006 281.000003,312.599992 280.32,314.12 C279.639997,315.640008 279.3,317.299991 279.3,319.1 Z M334.38,310.94 L334.38,328.28 C334.38,332.080019 336.219982,333.98 339.9,333.98 C343.580018,333.98 345.42,332.080019 345.42,328.28 L345.42,310.94 L356.28,310.94 L356.28,330.38 C356.28,334.540021 354.910014,337.65999 352.17,339.74 C349.429986,341.82001 345.340027,342.86 339.9,342.86 C334.459973,342.86 330.370014,341.82001 327.63,339.74 C324.889986,337.65999 323.52,334.540021 323.52,330.38 L323.52,310.94 L334.38,310.94 Z M374.52,310.94 L374.52,341.72 L363.66,341.72 L363.66,310.94 L374.52,310.94 Z M362.94,299.12 C362.94,298.279996 363.099998,297.490004 363.42,296.75 C363.740002,296.009996 364.179997,295.360003 364.74,294.8 C365.300003,294.239997 365.949996,293.800002 366.69,293.48 C367.430004,293.159998 368.219996,293 369.06,293 C369.900004,293 370.689996,293.159998 371.43,293.48 C372.170004,293.800002 372.819997,294.239997 373.38,294.8 C373.940003,295.360003 374.379998,296.009996 374.7,296.75 C375.020002,297.490004 375.18,298.279996 375.18,299.12 C375.18,299.960004 375.020002,300.749996 374.7,301.49 C374.379998,302.230004 373.940003,302.879997 373.38,303.44 C372.819997,304.000003 372.170004,304.439998 371.43,304.76 C370.689996,305.080002 369.900004,305.24 369.06,305.24 C368.219996,305.24 367.430004,305.080002 366.69,304.76 C365.949996,304.439998 365.300003,304.000003 364.74,303.44 C364.179997,302.879997 363.740002,302.230004 363.42,301.49 C363.099998,300.749996 362.94,299.960004 362.94,299.12 Z M397.8,332.66 L410.76,332.66 L410.76,341.72 L379.56,341.72 L394.08,320 L381.54,320 L381.54,310.94 L412.2,310.94 L397.8,332.66 Z M446.8,315.44 L454.3,315.44 L454.3,324.44 L446.8,324.44 L446.8,332.48 L449.5,332.48 C451.54001,332.48 453.359992,332.160003 454.96,331.52 C456.560008,330.879997 457.909995,330.000006 459.01,328.88 C460.110005,327.759994 460.949997,326.430008 461.53,324.89 C462.110003,323.349992 462.4,321.660009 462.4,319.82 C462.4,318.019991 462.100003,316.340008 461.5,314.78 C460.899997,313.219992 460.050005,311.880006 458.95,310.76 C457.849994,309.639994 456.500008,308.760003 454.9,308.12 C453.299992,307.479997 451.50001,307.16 449.5,307.16 L446.8,307.16 L446.8,315.44 Z M435.04,324.44 L416.3,324.44 L416.3,315.44 L423.3,315.44 L435.04,315.44 L435.04,297.2 L452.44,297.2 C455.520015,297.2 458.409987,297.819994 461.11,299.06 C463.810014,300.300006 466.16999,301.94999 468.19,304.01 C470.21001,306.07001 471.799994,308.469986 472.96,311.21 C474.120006,313.950014 474.7,316.819985 474.7,319.82 C474.7,322.780015 474.130006,325.629986 472.99,328.37 C471.849994,331.110014 470.27001,333.51999 468.25,335.6 C466.22999,337.68001 463.870014,339.339994 461.17,340.58 C458.469987,341.820006 455.560016,342.44 452.44,342.44 L435.04,342.44 L435.04,324.44 Z M492.04,311.66 L492.04,342.44 L481.18,342.44 L481.18,311.66 L492.04,311.66 Z M480.46,299.84 C480.46,298.999996 480.619998,298.210004 480.94,297.47 C481.260002,296.729996 481.699997,296.080003 482.26,295.52 C482.820003,294.959997 483.469996,294.520002 484.21,294.2 C484.950004,293.879998 485.739996,293.72 486.58,293.72 C487.420004,293.72 488.209996,293.879998 488.95,294.2 C489.690004,294.520002 490.339997,294.959997 490.9,295.52 C491.460003,296.080003 491.899998,296.729996 492.22,297.47 C492.540002,298.210004 492.7,298.999996 492.7,299.84 C492.7,300.680004 492.540002,301.469996 492.22,302.21 C491.899998,302.950004 491.460003,303.599997 490.9,304.16 C490.339997,304.720003 489.690004,305.159998 488.95,305.48 C488.209996,305.800002 487.420004,305.96 486.58,305.96 C485.739996,305.96 484.950004,305.800002 484.21,305.48 C483.469996,305.159998 482.820003,304.720003 482.26,304.16 C481.699997,303.599997 481.260002,302.950004 480.94,302.21 C480.619998,301.469996 480.46,300.680004 480.46,299.84 Z M509.56,326.9 C509.56,327.900005 509.739998,328.829996 510.1,329.69 C510.460002,330.550004 510.949997,331.299997 511.57,331.94 C512.190003,332.580003 512.929996,333.079998 513.79,333.44 C514.650004,333.800002 515.579995,333.98 516.58,333.98 C517.540005,333.98 518.449996,333.800002 519.31,333.44 C520.170004,333.079998 520.909997,332.580003 521.53,331.94 C522.150003,331.299997 522.649998,330.550004 523.03,329.69 C523.410002,328.829996 523.6,327.920005 523.6,326.96 C523.6,325.959995 523.410002,325.040004 523.03,324.2 C522.649998,323.359996 522.140003,322.620003 521.5,321.98 C520.859997,321.339997 520.110004,320.840002 519.25,320.48 C518.389996,320.119998 517.500005,319.94 516.58,319.94 C515.619995,319.94 514.720004,320.129998 513.88,320.51 C513.039996,320.890002 512.300003,321.389997 511.66,322.01 C511.019997,322.630003 510.510002,323.359996 510.13,324.2 C509.749998,325.040004 509.56,325.939995 509.56,326.9 Z M533.92,311.66 L533.92,340.34 C533.92,342.060009 533.820001,343.599993 533.62,344.96 C533.419999,346.320007 533.140002,347.519995 532.78,348.56 C532.299998,349.880007 531.550005,351.109994 530.53,352.25 C529.509995,353.390006 528.280007,354.379996 526.84,355.22 C525.399993,356.060004 523.770009,356.719998 521.95,357.2 C520.129991,357.680002 518.160011,357.92 516.04,357.92 C513.639988,357.92 511.44001,357.620003 509.44,357.02 C507.43999,356.419997 505.690007,355.590005 504.19,354.53 C502.689993,353.469995 501.460005,352.230007 500.5,350.81 C499.539995,349.389993 498.900002,347.840008 498.58,346.16 L510.82,346.16 C511.580004,348.20001 513.299987,349.22 515.98,349.22 C518.260011,349.22 520.009994,348.580006 521.23,347.3 C522.450006,346.019994 523.06,344.240011 523.06,341.96 L523.06,339.02 C522.259996,339.780004 521.490004,340.409998 520.75,340.91 C520.009996,341.410003 519.260004,341.819998 518.5,342.14 C517.739996,342.460002 516.940004,342.689999 516.1,342.83 C515.259996,342.970001 514.340005,343.04 513.34,343.04 C511.139989,343.04 509.120009,342.660004 507.28,341.9 C505.439991,341.139996 503.850007,340.080007 502.51,338.72 C501.169993,337.359993 500.130004,335.730009 499.39,333.83 C498.649996,331.929991 498.28,329.820012 498.28,327.5 C498.28,325.139988 498.679996,322.95001 499.48,320.93 C500.280004,318.90999 501.369993,317.150008 502.75,315.65 C504.130007,314.149992 505.769991,312.970004 507.67,312.11 C509.570009,311.249996 511.639989,310.82 513.88,310.82 C517.520018,310.82 520.579988,312.179986 523.06,314.9 L523.06,311.66 L533.92,311.66 Z" id="Combined-Shape"></path>
        </g>
    </g>
</svg>